<svg width="109" height="106" viewBox="0 0 109 106" fill="none" xmlns="http://www.w3.org/2000/svg">
<mask id="mask0_1855_440" style="mask-type:alpha" maskUnits="userSpaceOnUse" x="0" y="0" width="109" height="106">
<rect width="109" height="106" fill="#D9D9D9"/>
</mask>
<g mask="url(#mask0_1855_440)">
<path fill-rule="evenodd" clip-rule="evenodd" d="M5 0.09375L38.5151 -0.086289C39.5861 -0.0920419 40.6146 0.3319 41.3704 1.09062L74.6883 34.5358L108.013 67.9874C108.765 68.7424 109.184 69.7662 109.179 70.8319L109 104.094L5 0.09375Z" fill="#DC3F45"/>
<path d="M45.9451 16.5039C46.5589 17.1177 46.9879 17.7513 47.232 18.4046C47.4828 19.0646 47.5422 19.7048 47.4102 20.3251C47.2782 20.9455 46.9549 21.5131 46.4401 22.0279C45.9319 22.536 45.3643 22.8594 44.7374 22.998C44.117 23.13 43.4768 23.0706 42.8169 22.8198C42.1701 22.569 41.5398 22.1368 40.9261 21.523L39.5302 20.1272L37.6196 22.0378L36.0159 20.434L42.9456 13.5044L45.9451 16.5039ZM42.1437 20.1272C42.6255 20.6089 43.0941 20.8729 43.5494 20.9191C44.0114 20.9587 44.4338 20.7871 44.8166 20.4043C45.2059 20.015 45.3775 19.5926 45.3313 19.1372C45.2917 18.6752 45.0311 18.2034 44.5493 17.7216L43.2425 16.4148L40.837 18.8204L42.1437 20.1272ZM46.5037 31.1594C45.7843 30.44 45.2893 29.6349 45.0187 28.7439C44.7547 27.8595 44.7283 26.9818 44.9395 26.1106C45.1639 25.2395 45.616 24.464 46.2958 23.7842C46.9755 23.1045 47.7477 22.6557 48.6122 22.4379C49.49 22.2201 50.3711 22.2432 51.2554 22.5072C52.1464 22.7778 52.9515 23.2728 53.6709 23.9921C54.3903 24.7115 54.8819 25.5134 55.1459 26.3977C55.4099 27.2821 55.433 28.1631 55.2152 29.0409C55.004 29.912 54.5585 30.6875 53.8788 31.3673C53.199 32.047 52.4203 32.4958 51.5425 32.7136C50.6713 32.9248 49.7936 32.8984 48.9092 32.6344C48.0249 32.3704 47.223 31.8787 46.5037 31.1594ZM47.8698 29.7932C48.279 30.2024 48.7409 30.4796 49.2557 30.6248C49.7771 30.7634 50.2985 30.7568 50.8198 30.605C51.3478 30.4598 51.8263 30.1727 52.2553 29.7437C52.6842 29.3148 52.9713 28.8363 53.1165 28.3083C53.2683 27.7869 53.2716 27.2689 53.1264 26.7541C52.9878 26.2327 52.7139 25.7674 52.3048 25.3583C51.8956 24.9491 51.4303 24.6752 50.9089 24.5366C50.3942 24.3914 49.8728 24.3914 49.3448 24.5366C48.8234 24.6884 48.3483 24.9788 47.9193 25.4078C47.4903 25.8367 47.1999 26.3119 47.0481 26.8333C46.9029 27.3613 46.8996 27.8859 47.0382 28.4073C47.1834 28.9221 47.4606 29.3841 47.8698 29.7932ZM61.5484 32.1072C62.1622 32.721 62.5912 33.3546 62.8353 34.008C63.0861 34.6679 63.1455 35.3081 63.0135 35.9285C62.8815 36.5488 62.5582 37.1164 62.0434 37.6312C61.5352 38.1393 60.9676 38.4627 60.3407 38.6013C59.7203 38.7333 59.0801 38.6739 58.4202 38.4231C57.7734 38.1723 57.1431 37.7401 56.5294 37.1263L55.1335 35.7305L53.2229 37.6411L51.6192 36.0373L58.5489 29.1077L61.5484 32.1072ZM57.747 35.7305C58.2288 36.2122 58.6974 36.4762 59.1527 36.5224C59.6147 36.562 60.0371 36.3904 60.4199 36.0077C60.8092 35.6183 60.9808 35.1959 60.9346 34.7405C60.895 34.2785 60.6344 33.8067 60.1526 33.3249L58.8458 32.0182L56.4403 34.4237L57.747 35.7305ZM61.7041 46.3598C60.7141 45.3699 60.2159 44.3238 60.2093 43.2217C60.2093 42.1261 60.7174 41.0702 61.7338 40.0538L65.6144 36.1732L67.2181 37.777L63.3969 41.5982C62.1562 42.8389 62.0506 43.974 63.0801 45.0036C63.5817 45.5052 64.113 45.7394 64.6739 45.7064C65.2415 45.6669 65.8454 45.327 66.4856 44.6868L70.3068 40.8656L71.8907 42.4495L68.0101 46.3301C66.9937 47.3465 65.9345 47.8513 64.8323 47.8447C63.7368 47.8447 62.694 47.3498 61.7041 46.3598ZM73.4754 44.0343L75.0792 45.638L69.4563 51.2609L72.931 54.7356L71.6242 56.0424L66.5458 50.9639L73.4754 44.0343ZM78.6269 60.0752L75.4096 56.8578L73.3109 57.729L71.6676 56.0857L81.6858 52.2447L83.2698 53.8286L79.4387 63.8568L77.7557 62.1739L78.6269 60.0752ZM79.3397 58.3527L80.8939 54.6008L77.142 56.155L79.3397 58.3527ZM84.5728 68.9909L85.1668 65.7241L85.0876 65.6449L83.6917 64.2491L81.7613 66.1795L80.1576 64.5757L87.0873 57.6461L90.0868 60.6456C90.7006 61.2594 91.1295 61.893 91.3737 62.5463C91.6245 63.2063 91.6839 63.8465 91.5519 64.4668C91.4199 65.0872 91.0965 65.6548 90.5818 66.1696C90.067 66.6843 89.4961 67.0044 88.8692 67.1298C88.2554 67.2552 87.6218 67.1892 86.9685 66.9318L86.2953 70.7134L84.5728 68.9909ZM88.9583 64.546C89.3476 64.1567 89.5192 63.7343 89.473 63.2789C89.4334 62.8169 89.1727 62.345 88.691 61.8633L87.3842 60.5565L84.9688 62.972L86.2755 64.2788C86.7573 64.7605 87.2291 65.0212 87.6911 65.0608C88.1531 65.1004 88.5755 64.9288 88.9583 64.546Z" fill="white"/>
</g>
</svg>
